<svg width="26" height="26" viewBox="0 0 26 26" fill="none" xmlns="http://www.w3.org/2000/svg">
<circle cx="12.6667" cy="13" r="12.5" fill="#FD2424"/>
<path fill-rule="evenodd" clip-rule="evenodd" d="M5.4596 7.79289C5.1667 8.08579 5.1667 8.55719 5.1667 9.5V17.1667C5.1667 18.1095 5.1667 18.5809 5.4596 18.8738C5.75249 19.1667 6.22389 19.1667 7.1667 19.1667H18.1667C19.1095 19.1667 19.5809 19.1667 19.8738 18.8738C20.1667 18.5809 20.1667 18.1095 20.1667 17.1667V9.5C20.1667 8.55719 20.1667 8.08579 19.8738 7.79289C19.5809 7.5 19.1095 7.5 18.1667 7.5H7.1667C6.22389 7.5 5.75249 7.5 5.4596 7.79289ZM7.94405 10.4173C7.71429 10.2641 7.40385 10.3262 7.25068 10.556C7.0975 10.7857 7.15959 11.0962 7.38935 11.2494L11.8347 14.2129C12.3385 14.5488 12.9949 14.5488 13.4988 14.2129L17.9441 11.2494C18.1738 11.0962 18.2359 10.7857 18.0827 10.556C17.9296 10.3262 17.6191 10.2641 17.3894 10.4173L12.9441 13.3808C12.7761 13.4928 12.5573 13.4928 12.3894 13.3808L7.94405 10.4173Z" fill="white"/>
</svg>
